<svg width="640" height="1280" xmlns="http://www.w3.org/2000/svg" preserveAspectRatio="xMidYMid meet">
 <metadata>Created by potrace 1.15, written by Peter Selinger 2001-2017</metadata>

 <g>
  <title>background</title>
  <rect fill="none" id="canvas_background" height="402" width="582" y="-1" x="-1"/>
 </g>
 <g>
  <title>Layer 1</title>
  <g id="svg_1" fill="#000000" transform="translate(0,1280) scale(0.10000000149011612,-0.10000000149011612) ">
   <path fill="#f5ba95" id="svg_2" d="m3040,12786c-438,-78 -765,-396 -854,-829c-19,-91 -22,-272 -6,-369c54,-340 298,-652 613,-785c165,-69 212,-78 417,-77c172,0 191,2 275,28c183,55 326,139 453,265c363,359 413,913 121,1337c-59,85 -180,204 -268,264c-92,62 -217,118 -329,146c-120,32 -309,40 -422,20z"/>
   <path fill="#f5ba95" id="svg_3" d="m2285,10435c-293,-47 -542,-177 -751,-391c-178,-183 -280,-362 -367,-649c-30,-99 -115,-376 -187,-615c-73,-239 -181,-595 -240,-790c-59,-195 -167,-551 -240,-790c-72,-239 -150,-493 -172,-563c-71,-230 -81,-315 -53,-436c31,-130 117,-235 240,-293c118,-55 278,-49 385,14c49,29 126,105 160,158c38,59 54,104 149,425c419,1413 673,2267 707,2383l25,82l110,0c101,0 110,-2 105,-17c-10,-33 -122,-421 -326,-1128c-213,-738 -430,-1494 -660,-2290c-76,-264 -200,-693 -275,-954c-75,-260 -139,-480 -142,-487c-4,-12 100,-14 656,-14l661,0l0,-1818c0,-1263 3,-1836 11,-1878c43,-236 262,-398 514,-381c226,16 400,159 444,365c8,38 11,568 11,1892l0,1840l145,0l144,0l3,-1857c3,-1849 3,-1858 24,-1914c46,-126 117,-211 221,-267c147,-78 338,-81 484,-7c67,35 158,121 192,183c60,111 57,-5 57,2004l0,1838l660,0c368,0 660,4 660,9c0,4 -13,53 -29,107c-29,98 -99,339 -291,999c-169,582 -589,2029 -790,2720c-106,363 -218,749 -249,858l-58,197l119,0c86,0 120,-3 123,-12c2,-7 53,-179 114,-383c60,-203 168,-566 239,-805c72,-239 198,-664 282,-945c83,-280 165,-551 181,-602c35,-106 86,-190 153,-251c218,-200 568,-106 675,182c27,73 37,192 22,271c-6,33 -140,483 -297,1000c-717,2356 -657,2168 -740,2308c-185,308 -476,551 -779,651c-190,63 -140,60 -1085,62c-670,2 -883,0 -945,-11z"/>
  </g>
 </g>
</svg>