<svg width="32" height="32" xmlns="http://www.w3.org/2000/svg">

 <g>
  <title>background</title>
  <rect fill="none" id="canvas_background" height="402" width="582" y="-1" x="-1"/>
 </g>
 <g>
  <title>Layer 1</title>
  <g id="svg_1">
   <g id="svg_2">
    <path fill="#f5ba95" id="svg_3" d="m14.708,15.847c-0.456,-0.983 -0.708,-2.105 -0.708,-3.347s0.252,-2.489 0.708,-3.659c0.455,-1.171 1.114,-2.266 1.929,-3.205c0.814,-0.938 1.784,-1.723 2.86,-2.271c1.077,-0.551 2.261,-0.865 3.503,-0.865s2.426,0.252 3.503,0.707c1.077,0.456 2.046,1.115 2.86,1.929c0.813,0.814 1.474,1.784 1.929,2.861c0.457,1.076 0.708,2.261 0.708,3.503s-0.252,2.427 -0.708,3.503c-0.455,1.077 -1.114,2.047 -1.929,2.861c-0.813,0.814 -12.286,11.18 -13.363,11.636l0,0l0,0c-1.077,-0.456 -12.55,-10.822 -13.364,-11.636c-0.814,-0.814 -1.473,-1.784 -1.929,-2.861c-0.455,-1.076 -0.707,-2.261 -0.707,-3.503s0.252,-2.427 0.707,-3.503c0.456,-1.077 1.114,-2.047 1.929,-2.861c0.814,-0.814 1.784,-1.473 2.861,-1.929c1.076,-0.455 2.26,-0.707 3.503,-0.707s2.427,0.314 3.503,0.863c1.077,0.55 2.046,1.334 2.861,2.272c0.814,0.939 1.473,2.034 1.929,3.205c0.455,1.171 0.707,2.418 0.707,3.66s-0.252,2.364 -0.707,3.347c-0.456,0.983 -1.113,1.828 -1.929,2.518"/>
   </g>
  </g>
  <g id="svg_4"/>
  <g id="svg_5"/>
  <g id="svg_6"/>
  <g id="svg_7"/>
  <g id="svg_8"/>
  <g id="svg_9"/>
  <g id="svg_10"/>
  <g id="svg_11"/>
  <g id="svg_12"/>
  <g id="svg_13"/>
  <g id="svg_14"/>
  <g id="svg_15"/>
  <g id="svg_16"/>
  <g id="svg_17"/>
  <g id="svg_18"/>
 </g>
</svg>