<svg width="640" height="1280" xmlns="http://www.w3.org/2000/svg" preserveAspectRatio="xMidYMid meet">
 <metadata>Created by potrace 1.15, written by Peter Selinger 2001-2017</metadata>

 <g>
  <title>background</title>
  <rect fill="none" id="canvas_background" height="402" width="582" y="-1" x="-1"/>
 </g>
 <g>
  <title>Layer 1</title>
  <g id="svg_1" fill="#000000" transform="translate(0,1280) scale(0.10000000149011612,-0.10000000149011612) ">
   <path fill="#f5ba95" id="svg_2" d="m3027,12784c-290,-52 -544,-220 -705,-463c-134,-204 -189,-425 -170,-681c30,-386 296,-743 659,-886c143,-56 212,-68 389,-69c168,0 209,6 340,47c263,83 515,309 630,562c124,273 129,581 13,856c-73,174 -231,368 -378,465c-233,154 -520,216 -778,169z"/>
   <path fill="#f5ba95" id="svg_3" d="m1920,10435c-8,-2 -49,-9 -90,-15c-106,-17 -265,-71 -371,-126c-394,-204 -653,-566 -731,-1024c-10,-59 -13,-445 -13,-1815l0,-1740l22,-71c71,-223 311,-355 546,-300c161,38 267,129 328,281l24,60l3,1553l2,1552l110,0l110,0l2,-4152l3,-4153l21,-61c59,-169 154,-284 295,-353c190,-93 392,-93 586,0c152,73 269,220 314,394c10,40 14,536 16,2472l3,2423l105,0l105,0l0,-2407c0,-2080 2,-2418 15,-2478c61,-293 341,-494 655,-471c260,18 457,165 538,401l27,80l3,4153l2,4153l108,-3l107,-3l5,-1555c4,-1101 8,-1564 16,-1585c75,-204 232,-315 447,-315c234,0 413,158 447,395c8,58 10,541 8,1770c-3,1588 -5,1696 -22,1785c-110,572 -500,992 -1046,1128l-105,26l-1290,2c-709,1 -1297,1 -1305,-1z"/>
  </g>
 </g>
</svg>