<svg width="477.156" height="477.156" xmlns="http://www.w3.org/2000/svg">

 <g>
  <title>background</title>
  <rect fill="none" id="canvas_background" height="402" width="582" y="-1" x="-1"/>
 </g>
 <g>
  <title>Layer 1</title>
  <g id="svg_1">
   <path fill="#f5ba95" id="svg_2" d="m475.009,380.316l-2.375,-7.156c-5.625,-16.719 -24.062,-34.156 -41,-38.75l-62.688,-17.125c-17,-4.625 -41.25,1.594 -53.688,14.031l-22.688,22.688c-82.453,-22.28 -147.109,-86.938 -169.359,-169.375l22.689,-22.689c12.438,-12.438 18.656,-36.656 14.031,-53.656l-17.094,-62.719c-4.625,-16.969 -22.094,-35.406 -38.781,-40.969l-7.156,-2.406c-16.719,-5.563 -40.563,0.063 -53,12.5l-33.938,33.969c-6.063,6.031 -9.938,23.281 -9.938,23.344c-1.187,107.75 41.063,211.562 117.281,287.781c76.031,76.031 179.454,118.219 286.891,117.313c0.562,0 18.312,-3.813 24.375,-9.845l33.938,-33.938c12.437,-12.436 18.062,-36.279 12.5,-52.998z"/>
  </g>
  <g id="svg_3"/>
  <g id="svg_4"/>
  <g id="svg_5"/>
  <g id="svg_6"/>
  <g id="svg_7"/>
  <g id="svg_8"/>
  <g id="svg_9"/>
  <g id="svg_10"/>
  <g id="svg_11"/>
  <g id="svg_12"/>
  <g id="svg_13"/>
  <g id="svg_14"/>
  <g id="svg_15"/>
  <g id="svg_16"/>
  <g id="svg_17"/>
 </g>
</svg>