<svg width="48" height="48" xmlns="http://www.w3.org/2000/svg">
 <!-- Generator: Sketch 3.7.2 (28276) - http://www.bohemiancoding.com/sketch -->
 <title>Whatsapp-black</title>
 <desc>Created with Sketch.</desc>

 <g>
  <title>background</title>
  <rect fill="none" id="canvas_background" height="402" width="582" y="-1" x="-1"/>
 </g>
 <g>
  <title>Layer 1</title>
  <g fill-rule="evenodd" fill="none" id="Icons">
   <g fill="#000000" id="Black">
    <path fill="#f5ba95" id="Whatsapp" d="m23.99303,0c-13.23078,0 -23.99303,10.76529 -23.99303,23.9998c0,5.24865 1.69266,10.11622 4.57003,14.06715l-2.99042,8.91685l9.22484,-2.94826c3.79416,2.51143 8.32198,3.96446 13.20252,3.96446c13.23078,0 23.99303,-10.76569 23.99303,-23.9998c0,-13.23451 -10.76225,-23.9998 -23.99303,-23.9998l-0.01394,0l0,-0.0004zm-6.70018,12.19084c-0.46536,-1.11456 -0.81807,-1.15677 -1.52308,-1.18544c-0.24004,-0.01394 -0.50756,-0.02787 -0.80413,-0.02787c-0.91719,0 -1.87618,0.26798 -2.4546,0.8605c-0.70501,0.71955 -2.4542,2.39835 -2.4542,5.84117c0,3.44282 2.51073,6.77256 2.8491,7.23845c0.35271,0.46509 4.89487,7.63266 11.94736,10.55384c5.51508,2.28566 7.15161,2.07382 8.40677,1.80583c1.83359,-0.39501 4.13293,-1.75008 4.71135,-3.38628c0.57842,-1.63699 0.57842,-3.03387 0.40884,-3.33013c-0.16919,-0.29626 -0.63495,-0.46509 -1.33996,-0.81829c-0.70501,-0.35281 -4.13293,-2.04595 -4.78181,-2.27173c-0.63495,-0.23971 -1.24123,-0.1549 -1.72053,0.52244c-0.67714,0.94532 -1.33995,1.90498 -1.87617,2.48316c-0.42317,0.45156 -1.11465,0.50811 -1.69267,0.26799c-0.77587,-0.32413 -2.94782,-1.08668 -5.62813,-3.47109c-2.07363,-1.84804 -3.48405,-4.14763 -3.89289,-4.83891c-0.40923,-0.70521 -0.04219,-1.11495 0.28185,-1.49563c0.3527,-0.43762 0.69108,-0.74781 1.04378,-1.15716c0.3527,-0.40895 0.55015,-0.62079 0.77587,-1.10062c0.24004,-0.46549 0.07046,-0.94532 -0.09873,-1.29813c-0.16918,-0.3528 -1.5796,-3.79562 -2.15802,-5.1921z"/>
   </g>
  </g>
 </g>
</svg>